<svg preserveAspectRatio="xMidYMid meet" data-bbox="12.503 26.653 47.289 35.961" xmlns="http://www.w3.org/2000/svg" viewBox="12.503 26.653 47.289 35.961" role="presentation" aria-hidden="true">
    <g>
        <path style='fill: rgb(204,174,147);' d="M36.148 40.245c-2.293-5.574-7.687-13.591-19.729-13.591-.737 0-1.502.031-2.273.091a1.787 1.787 0 0 0-1.639 1.898c.013.187 1.484 18.617 21.701 20.713v11.409c0 1.054.747 1.849 1.738 1.849.99 0 1.737-.795 1.737-1.849V49.39c20.514-1.885 22.092-20.556 22.105-20.747a1.787 1.787 0 0 0-1.639-1.899 29.472 29.472 0 0 0-2.274-.091c-12.038 0-17.433 8.018-19.727 13.592zm1.953 5.534c.365-1.638 1.115-4.246 2.562-6.822 3.257-5.8 8.376-8.741 15.214-8.741h.078c-.96 4.616-4.547 14.022-17.854 15.563zm-3.887.002c-13.319-1.536-16.911-10.947-17.872-15.565h.075c12.876 0 16.695 10.397 17.797 15.565z"></path>
    </g>
</svg>
